<?xml version="1.0" encoding="utf-8"?>
<!-- Generator: Adobe Illustrator 15.0.0, SVG Export Plug-In . SVG Version: 6.00 Build 0)  -->
<!DOCTYPE svg PUBLIC "-//W3C//DTD SVG 1.1//EN" "http://www.w3.org/Graphics/SVG/1.1/DTD/svg11.dtd">
<svg version="1.1" id="Ebene_1" xmlns="http://www.w3.org/2000/svg" xmlns:xlink="http://www.w3.org/1999/xlink" x="0px" y="0px"
	 width="4000px" height="4000px" viewBox="0 0 4000 4000" enable-background="new 0 0 4000 4000" xml:space="preserve">
<path fill="none" stroke="#000000" stroke-width="6" stroke-miterlimit="10" d="M523.492,373.633"/>
<line fill="none" stroke="#000000" stroke-width="6" stroke-miterlimit="10" x1="422" y1="675" x2="622" y2="675.333"/>
<line fill="none" stroke="#000000" stroke-width="6" stroke-miterlimit="10" x1="425" y1="487" x2="425" y2="661"/>
<line fill="none" stroke="#000000" stroke-width="6" stroke-miterlimit="10" x1="619" y1="487" x2="619" y2="661"/>
<polyline fill="none" stroke="#000000" stroke-width="6" stroke-miterlimit="10" points="474,474.065 623.703,474.094 
	523.367,373.602 423.063,474 "/>
<path fill="none" stroke="#000000" stroke-width="6" stroke-miterlimit="10" d="M386.25,438.313
	c-5.031,4.755-9.083,10.969-9.083,18.438c0,14.406,11.678,26.083,26.083,26.083c7.469,0,15.326-4.273,19.984-8.99"/>
<path stroke="#000000" stroke-miterlimit="10" d="M384.869,428.386c-1.233,1.313-1.994,3.076-1.994,5.02
	c0,4.056,3.288,7.344,7.344,7.344c2.153,0,4.084-0.933,5.427-2.409L384.869,428.386z"/>
<line fill="none" stroke="#000000" stroke-width="1.5" stroke-miterlimit="10" x1="385.534" y1="433.515" x2="392.165" y2="426.702"/>
<line fill="none" stroke="#000000" stroke-width="1.5" stroke-miterlimit="10" x1="391.212" y1="436.759" x2="396.823" y2="430.994"/>
<g>
	<path fill="none" stroke="#000000" stroke-width="3" stroke-miterlimit="10" d="M399.352,365.557
		c20.092,4.987,38.313,17.557,49.975,36.608c2.464,4.024,4.515,8.184,6.209,12.423"/>
	<path fill="none" stroke="#000000" stroke-width="3" stroke-miterlimit="10" d="M475.278,406.161
		c-2.052-4.966-4.514-9.838-7.408-14.566c-14.827-24.22-38.054-40.148-63.635-46.334"/>
	<path fill="none" stroke="#000000" stroke-width="3" stroke-miterlimit="10" d="M390.245,403.418
		c10.636,2.712,20.269,9.402,26.453,19.503c1.348,2.203,2.465,4.48,3.382,6.803"/>
	<path fill="none" stroke="#000000" stroke-width="3" stroke-miterlimit="10" d="M437.256,422.392
		c-1.275-3.144-2.809-6.229-4.639-9.216c-8.877-14.5-22.719-24.091-37.997-27.95"/>
	<path fill="none" stroke="#000000" stroke-width="3" stroke-miterlimit="10" d="M379.778,446.928"/>
	<path fill="none" stroke="#000000" stroke-width="3" stroke-miterlimit="10" d="M407.317,435.173
		c-0.653-1.77-1.483-3.501-2.505-5.171c-4.159-6.793-10.654-11.28-17.819-13.066"/>
	<path fill="#FDFF3F" stroke="#000000" stroke-width="3" stroke-miterlimit="10" d="M404.234,345.26"/>
	<path fill="none" stroke="#000000" stroke-width="3" stroke-miterlimit="10" d="M399.352,365.557"/>
	<path fill="none" stroke="#000000" stroke-width="3" stroke-miterlimit="10" d="M394.621,385.226"/>
	<path fill="none" stroke="#000000" stroke-width="3" stroke-miterlimit="10" d="M390.245,403.418"/>
	<path fill="none" stroke="#000000" stroke-width="3" stroke-miterlimit="10" d="M386.993,416.936"/>
	<path fill="none" stroke="#000000" stroke-width="3" stroke-miterlimit="10" d="M407.317,435.173"/>
	<path fill="none" stroke="#000000" stroke-width="3" stroke-miterlimit="10" d="M420.08,429.725"/>
	<path fill="#FDFF3F" stroke="#000000" stroke-width="3" stroke-miterlimit="10" d="M379.778,446.928"/>
	<path fill="none" stroke="#000000" stroke-width="3" stroke-miterlimit="10" d="M475.278,406.161"/>
	<path fill="none" stroke="#000000" stroke-width="3" stroke-miterlimit="10" d="M437.256,422.392"/>
	<path fill="none" stroke="#000000" stroke-width="3" stroke-miterlimit="10" d="M455.537,414.588"/>
</g>
<path fill="none" stroke="#000000" stroke-width="6" stroke-miterlimit="10" d="M843.492,378.633"/>
<line fill="none" stroke="#000000" stroke-width="6" stroke-miterlimit="10" x1="742" y1="680" x2="942" y2="680.333"/>
<line fill="none" stroke="#000000" stroke-width="6" stroke-miterlimit="10" x1="745" y1="492" x2="745" y2="682"/>
<line fill="none" stroke="#000000" stroke-width="6" stroke-miterlimit="10" x1="939" y1="492" x2="939" y2="680"/>
<polyline fill="none" stroke="#000000" stroke-width="6" stroke-miterlimit="10" points="794,479.065 943.703,479.094 
	843.367,378.602 743.063,479 "/>
<path fill="none" stroke="#000000" stroke-width="6" stroke-miterlimit="10" d="M706.25,443.313
	c-5.031,4.755-9.083,10.969-9.083,18.438c0,14.406,11.678,26.083,26.083,26.083c7.469,0,15.326-4.273,19.984-8.99"/>
<path stroke="#000000" stroke-miterlimit="10" d="M704.869,433.386c-1.233,1.313-1.994,3.076-1.994,5.02
	c0,4.056,3.288,7.344,7.344,7.344c2.153,0,4.084-0.933,5.427-2.409L704.869,433.386z"/>
<line fill="none" stroke="#000000" stroke-width="1.5" stroke-miterlimit="10" x1="705.534" y1="438.515" x2="712.165" y2="431.702"/>
<line fill="none" stroke="#000000" stroke-width="1.5" stroke-miterlimit="10" x1="711.212" y1="441.759" x2="716.823" y2="435.994"/>
<g>
	<path fill="none" stroke="#000000" stroke-width="3" stroke-miterlimit="10" d="M719.352,370.557
		c20.092,4.987,38.313,17.557,49.975,36.608c2.464,4.024,4.515,8.184,6.209,12.423"/>
	<path fill="none" stroke="#000000" stroke-width="3" stroke-miterlimit="10" d="M795.278,411.161
		c-2.052-4.966-4.514-9.838-7.408-14.566c-14.827-24.22-38.054-40.148-63.635-46.334"/>
	<path fill="none" stroke="#000000" stroke-width="3" stroke-miterlimit="10" d="M710.245,408.418
		c10.636,2.712,20.269,9.402,26.453,19.503c1.348,2.203,2.465,4.48,3.382,6.803"/>
	<path fill="none" stroke="#000000" stroke-width="3" stroke-miterlimit="10" d="M757.256,427.392
		c-1.275-3.144-2.809-6.229-4.639-9.216c-8.877-14.5-22.719-24.091-37.997-27.95"/>
	<path fill="none" stroke="#000000" stroke-width="3" stroke-miterlimit="10" d="M699.778,451.928"/>
	<path fill="none" stroke="#000000" stroke-width="3" stroke-miterlimit="10" d="M727.317,440.173
		c-0.653-1.77-1.483-3.501-2.505-5.171c-4.159-6.793-10.654-11.28-17.819-13.066"/>
	<path fill="#FDFF3F" stroke="#000000" stroke-width="3" stroke-miterlimit="10" d="M724.234,350.26"/>
	<path fill="none" stroke="#000000" stroke-width="3" stroke-miterlimit="10" d="M719.352,370.557"/>
	<path fill="none" stroke="#000000" stroke-width="3" stroke-miterlimit="10" d="M714.621,390.226"/>
	<path fill="none" stroke="#000000" stroke-width="3" stroke-miterlimit="10" d="M710.245,408.418"/>
	<path fill="none" stroke="#000000" stroke-width="3" stroke-miterlimit="10" d="M706.993,421.936"/>
	<path fill="none" stroke="#000000" stroke-width="3" stroke-miterlimit="10" d="M727.317,440.173"/>
	<path fill="none" stroke="#000000" stroke-width="3" stroke-miterlimit="10" d="M740.08,434.725"/>
	<path fill="#FDFF3F" stroke="#000000" stroke-width="3" stroke-miterlimit="10" d="M699.778,451.928"/>
	<path fill="none" stroke="#000000" stroke-width="3" stroke-miterlimit="10" d="M795.278,411.161"/>
	<path fill="none" stroke="#000000" stroke-width="3" stroke-miterlimit="10" d="M757.256,427.392"/>
	<path fill="none" stroke="#000000" stroke-width="3" stroke-miterlimit="10" d="M775.537,419.588"/>
</g>
<path fill="none" stroke="#000000" stroke-width="6" stroke-miterlimit="10" d="M2359.334,511.198"/>
<g>
	<polyline fill="none" stroke="#000000" stroke-width="6" stroke-miterlimit="10" points="2460.031,671.959 2332.479,544.21 
		2206.637,670.199 	"/>
	<g>
		<path fill="none" stroke="#000000" stroke-width="6" stroke-miterlimit="10" d="M2160.714,623.931
			c-6.396,6.044-11.547,13.944-11.547,23.438c0,18.313,14.845,33.158,33.157,33.158c9.495,0,19.484-5.432,25.405-11.428"/>
		<path stroke="#000000" stroke-miterlimit="10" d="M2158.959,611.312c-1.568,1.67-2.535,3.911-2.535,6.381
			c0,5.156,4.18,9.336,9.335,9.336c2.737,0,5.192-1.186,6.899-3.063L2158.959,611.312z"/>
		
			<line fill="none" stroke="#000000" stroke-width="1.5" stroke-miterlimit="10" x1="2159.804" y1="617.832" x2="2168.232" y2="609.171"/>
		
			<line fill="none" stroke="#000000" stroke-width="1.5" stroke-miterlimit="10" x1="2167.021" y1="621.956" x2="2174.154" y2="614.626"/>
	</g>
	<g>
		<path fill="none" stroke="#000000" stroke-width="3" stroke-miterlimit="10" d="M2184.268,522.729
			c25.543,6.339,48.705,22.319,63.531,46.538c3.133,5.116,5.739,10.404,7.894,15.793"/>
		<path fill="none" stroke="#000000" stroke-width="3" stroke-miterlimit="10" d="M2280.788,574.346
			c-2.608-6.313-5.738-12.506-9.418-18.517c-18.849-30.789-48.375-51.038-80.896-58.902"/>
		<path fill="none" stroke="#000000" stroke-width="3" stroke-miterlimit="10" d="M2172.69,570.859
			c13.521,3.448,25.767,11.952,33.628,24.794c1.713,2.8,3.133,5.695,4.299,8.647"/>
		<path fill="none" stroke="#000000" stroke-width="3" stroke-miterlimit="10" d="M2232.453,594.979
			c-1.62-3.997-3.57-7.918-5.896-11.716c-11.285-18.434-28.881-30.626-48.303-35.531"/>
		<path fill="none" stroke="#000000" stroke-width="3" stroke-miterlimit="10" d="M2159.385,626.171"/>
		<path fill="none" stroke="#000000" stroke-width="3" stroke-miterlimit="10" d="M2194.395,611.227
			c-0.83-2.25-1.887-4.451-3.186-6.574c-5.287-8.636-13.544-14.34-22.652-16.61"/>
		<path fill="#FDFF3F" stroke="#000000" stroke-width="3" stroke-miterlimit="10" d="M2190.475,496.927"/>
		<path fill="none" stroke="#000000" stroke-width="3" stroke-miterlimit="10" d="M2184.268,522.729"/>
		<path fill="none" stroke="#000000" stroke-width="3" stroke-miterlimit="10" d="M2178.254,547.732"/>
		<path fill="none" stroke="#000000" stroke-width="3" stroke-miterlimit="10" d="M2172.69,570.859"/>
		<path fill="none" stroke="#000000" stroke-width="3" stroke-miterlimit="10" d="M2168.557,588.043"/>
		<path fill="none" stroke="#000000" stroke-width="3" stroke-miterlimit="10" d="M2194.395,611.227"/>
		<path fill="none" stroke="#000000" stroke-width="3" stroke-miterlimit="10" d="M2210.617,604.301"/>
		<path fill="#FDFF3F" stroke="#000000" stroke-width="3" stroke-miterlimit="10" d="M2159.385,626.171"/>
		<path fill="none" stroke="#000000" stroke-width="3" stroke-miterlimit="10" d="M2280.788,574.346"/>
		<path fill="none" stroke="#000000" stroke-width="3" stroke-miterlimit="10" d="M2232.453,594.979"/>
		<path fill="none" stroke="#000000" stroke-width="3" stroke-miterlimit="10" d="M2255.692,585.059"/>
	</g>
	<polyline fill="none" stroke="#000000" stroke-width="6" stroke-miterlimit="10" points="2433,663 2433,822 2233,822 2233,663 	"/>
	<g>
		<rect x="2418.359" y="752.402" fill="none" width="411.947" height="127.541"/>
		<path d="M2473.783,783.509c0,19.636-11.985,30.177-26.606,30.177c-15.216,0-25.757-11.816-25.757-29.157
			c0-18.191,11.221-30.092,26.521-30.092C2463.668,754.437,2473.783,766.423,2473.783,783.509z M2429.24,784.359
			c0,12.326,6.631,23.292,18.361,23.292s18.361-10.796,18.361-23.802c0-11.476-5.95-23.377-18.276-23.377
			C2435.361,760.472,2429.24,771.863,2429.24,784.359z"/>
		<path d="M2483.129,785.039c0-5.27-0.17-9.521-0.34-13.431h6.631l0.425,7.055h0.17c2.976-5.015,7.905-7.905,14.622-7.905
			c10.03,0,17.511,8.416,17.511,20.827c0,14.791-9.096,22.102-18.786,22.102c-5.441,0-10.201-2.38-12.666-6.46h-0.17v22.357h-7.396
			V785.039z M2490.525,796.005c0,1.105,0.084,2.125,0.34,3.06c1.359,5.186,5.865,8.756,11.221,8.756
			c7.905,0,12.496-6.461,12.496-15.896c0-8.161-4.336-15.216-12.241-15.216c-5.101,0-9.946,3.57-11.306,9.181
			c-0.256,0.935-0.51,2.041-0.51,2.976V796.005z"/>
		<path d="M2535.658,793.54c0.17,10.116,6.546,14.281,14.111,14.281c5.355,0,8.671-0.935,11.391-2.125l1.36,5.355
			c-2.636,1.19-7.226,2.635-13.771,2.635c-12.666,0-20.232-8.416-20.232-20.827s7.311-22.102,19.297-22.102
			c13.516,0,17.002,11.731,17.002,19.296c0,1.53-0.086,2.635-0.256,3.485H2535.658z M2557.59,788.185
			c0.086-4.675-1.955-12.071-10.371-12.071c-7.65,0-10.881,6.885-11.475,12.071H2557.59z"/>
		<path d="M2574.078,782.744c0-4.335-0.086-7.736-0.341-11.136h6.631l0.425,6.8h0.17c2.041-3.825,6.801-7.65,13.602-7.65
			c5.695,0,14.535,3.4,14.535,17.511v24.482h-7.48v-23.717c0-6.63-2.465-12.156-9.52-12.156c-4.846,0-8.672,3.485-10.031,7.651
			c-0.34,0.935-0.51,2.21-0.51,3.485v24.737h-7.48V782.744z"/>
		<path d="M2628.902,755.457v23.972h27.713v-23.972h7.48v57.294h-7.48v-26.862h-27.713v26.862h-7.48v-57.294H2628.902z"/>
		<path d="M2716.879,810.966c-2.635,1.36-8.16,2.72-15.131,2.72c-16.15,0-28.223-10.201-28.223-29.072
			c0-18.021,12.156-30.092,29.923-30.092c7.056,0,11.646,1.53,13.601,2.55l-1.869,6.035c-2.721-1.36-6.716-2.38-11.477-2.38
			c-13.431,0-22.356,8.585-22.356,23.632c0,14.111,8.075,23.037,21.932,23.037c4.591,0,9.181-0.935,12.156-2.38L2716.879,810.966z"
			/>
	</g>
</g>
<g>
	<path fill="none" stroke="#000000" stroke-width="6" stroke-miterlimit="10" d="M3499.041,757.515"/>
	<polyline fill="none" stroke="#000000" stroke-width="6" stroke-miterlimit="10" points="3609.031,933.113 3469.709,793.574 
		3332.252,931.189 	"/>
	<g>
		<path fill="none" stroke="#000000" stroke-width="6" stroke-miterlimit="10" d="M3282.091,880.651
			c-6.985,6.603-12.612,15.231-12.612,25.602c0,20.003,16.215,36.219,36.218,36.219c10.371,0,21.282-5.933,27.749-12.483"/>
		<path stroke="#000000" stroke-miterlimit="10" d="M3280.175,866.868c-1.714,1.824-2.77,4.271-2.77,6.971
			c0,5.631,4.564,10.197,10.196,10.197c2.989,0,5.671-1.294,7.536-3.345L3280.175,866.868z"/>
		
			<line fill="none" stroke="#000000" stroke-width="1.5" stroke-miterlimit="10" x1="3281.097" y1="873.99" x2="3290.303" y2="864.529"/>
		
			<line fill="none" stroke="#000000" stroke-width="1.5" stroke-miterlimit="10" x1="3288.98" y1="878.495" x2="3296.771" y2="870.488"/>
	</g>
	<g>
		<path fill="none" stroke="#000000" stroke-width="3" stroke-miterlimit="10" d="M3307.818,770.109
			c27.9,6.925,53.2,24.379,69.395,50.833c3.422,5.588,6.269,11.364,8.621,17.25"/>
		<path fill="none" stroke="#000000" stroke-width="3" stroke-miterlimit="10" d="M3413.246,826.491
			c-2.849-6.896-6.268-13.661-10.287-20.226c-20.587-33.63-52.84-55.749-88.36-64.338"/>
		<path fill="none" stroke="#000000" stroke-width="3" stroke-miterlimit="10" d="M3295.173,822.682
			c14.769,3.766,28.145,13.056,36.731,27.083c1.871,3.058,3.421,6.221,4.695,9.445"/>
		<path fill="none" stroke="#000000" stroke-width="3" stroke-miterlimit="10" d="M3360.45,849.028
			c-1.77-4.365-3.899-8.648-6.44-12.797c-12.326-20.135-31.547-33.452-52.761-38.81"/>
		<path fill="none" stroke="#000000" stroke-width="3" stroke-miterlimit="10" d="M3280.639,883.099"/>
		<path fill="none" stroke="#000000" stroke-width="3" stroke-miterlimit="10" d="M3318.88,866.775
			c-0.906-2.457-2.062-4.862-3.479-7.18c-5.775-9.433-14.794-15.663-24.743-18.144"/>
		<path fill="#FDFF3F" stroke="#000000" stroke-width="3" stroke-miterlimit="10" d="M3314.599,741.927"/>
		<path fill="none" stroke="#000000" stroke-width="3" stroke-miterlimit="10" d="M3307.818,770.109"/>
		<path fill="none" stroke="#000000" stroke-width="3" stroke-miterlimit="10" d="M3301.249,797.421"/>
		<path fill="none" stroke="#000000" stroke-width="3" stroke-miterlimit="10" d="M3295.173,822.682"/>
		<path fill="none" stroke="#000000" stroke-width="3" stroke-miterlimit="10" d="M3290.657,841.452"/>
		<path fill="none" stroke="#000000" stroke-width="3" stroke-miterlimit="10" d="M3318.88,866.775"/>
		<path fill="none" stroke="#000000" stroke-width="3" stroke-miterlimit="10" d="M3336.6,859.21"/>
		<path fill="#FDFF3F" stroke="#000000" stroke-width="3" stroke-miterlimit="10" d="M3280.639,883.099"/>
		<path fill="none" stroke="#000000" stroke-width="3" stroke-miterlimit="10" d="M3413.246,826.491"/>
		<path fill="none" stroke="#000000" stroke-width="3" stroke-miterlimit="10" d="M3360.45,849.028"/>
		<path fill="none" stroke="#000000" stroke-width="3" stroke-miterlimit="10" d="M3385.834,838.192"/>
	</g>
	<polyline fill="none" stroke="#000000" stroke-width="6" stroke-miterlimit="10" points="3579,923 3579,1097 3361,1097 3361,923 	
		"/>
</g>
<g>
	<polyline fill="none" stroke="#000000" stroke-width="6" stroke-miterlimit="10" points="2470.031,1071.959 2342.479,944.21 
		2216.637,1070.199 	"/>
	<g>
		<path fill="none" stroke="#000000" stroke-width="6" stroke-miterlimit="10" d="M2170.714,1023.931
			c-6.396,6.044-11.547,13.944-11.547,23.438c0,18.313,14.845,33.158,33.157,33.158c9.495,0,19.484-5.432,25.405-11.428"/>
		<path stroke="#000000" stroke-miterlimit="10" d="M2168.959,1011.312c-1.568,1.67-2.535,3.911-2.535,6.381
			c0,5.156,4.18,9.336,9.335,9.336c2.737,0,5.192-1.186,6.899-3.063L2168.959,1011.312z"/>
		
			<line fill="none" stroke="#000000" stroke-width="1.5" stroke-miterlimit="10" x1="2169.804" y1="1017.832" x2="2178.232" y2="1009.171"/>
		
			<line fill="none" stroke="#000000" stroke-width="1.5" stroke-miterlimit="10" x1="2177.021" y1="1021.956" x2="2184.154" y2="1014.626"/>
	</g>
	<g>
		<path fill="none" stroke="#000000" stroke-width="3" stroke-miterlimit="10" d="M2194.268,922.729
			c25.543,6.339,48.705,22.319,63.531,46.538c3.133,5.116,5.739,10.404,7.894,15.793"/>
		<path fill="none" stroke="#000000" stroke-width="3" stroke-miterlimit="10" d="M2290.788,974.346
			c-2.608-6.313-5.738-12.506-9.418-18.517c-18.849-30.789-48.375-51.038-80.896-58.902"/>
		<path fill="none" stroke="#000000" stroke-width="3" stroke-miterlimit="10" d="M2182.69,970.859
			c13.521,3.448,25.767,11.952,33.628,24.794c1.713,2.8,3.133,5.695,4.299,8.647"/>
		<path fill="none" stroke="#000000" stroke-width="3" stroke-miterlimit="10" d="M2242.453,994.979
			c-1.62-3.997-3.57-7.918-5.896-11.716c-11.285-18.434-28.881-30.626-48.303-35.531"/>
		<path fill="none" stroke="#000000" stroke-width="3" stroke-miterlimit="10" d="M2169.385,1026.171"/>
		<path fill="none" stroke="#000000" stroke-width="3" stroke-miterlimit="10" d="M2204.395,1011.227
			c-0.83-2.25-1.887-4.451-3.186-6.574c-5.287-8.636-13.544-14.34-22.652-16.61"/>
		<path fill="#FDFF3F" stroke="#000000" stroke-width="3" stroke-miterlimit="10" d="M2200.475,896.927"/>
		<path fill="none" stroke="#000000" stroke-width="3" stroke-miterlimit="10" d="M2194.268,922.729"/>
		<path fill="none" stroke="#000000" stroke-width="3" stroke-miterlimit="10" d="M2188.254,947.732"/>
		<path fill="none" stroke="#000000" stroke-width="3" stroke-miterlimit="10" d="M2182.69,970.859"/>
		<path fill="none" stroke="#000000" stroke-width="3" stroke-miterlimit="10" d="M2178.557,988.043"/>
		<path fill="none" stroke="#000000" stroke-width="3" stroke-miterlimit="10" d="M2204.395,1011.227"/>
		<path fill="none" stroke="#000000" stroke-width="3" stroke-miterlimit="10" d="M2220.617,1004.301"/>
		<path fill="#FDFF3F" stroke="#000000" stroke-width="3" stroke-miterlimit="10" d="M2169.385,1026.171"/>
		<path fill="none" stroke="#000000" stroke-width="3" stroke-miterlimit="10" d="M2290.788,974.346"/>
		<path fill="none" stroke="#000000" stroke-width="3" stroke-miterlimit="10" d="M2242.453,994.979"/>
		<path fill="none" stroke="#000000" stroke-width="3" stroke-miterlimit="10" d="M2265.692,985.059"/>
	</g>
	<polyline fill="none" stroke="#000000" stroke-width="6" stroke-miterlimit="10" points="2443,1063 2443,1222 2243,1222 2243,1063 
			"/>
	<g>
		<rect x="2451.5" y="1141.5" fill="none" width="718.666" height="124.667"/>
		<path d="M2523.221,1181.758c0,25.41-15.51,39.05-34.43,39.05c-19.69,0-33.33-15.29-33.33-37.73c0-23.541,14.52-38.94,34.32-38.94
			C2510.131,1144.138,2523.221,1159.648,2523.221,1181.758z M2465.58,1182.858c0,15.95,8.58,30.14,23.761,30.14
			s23.761-13.97,23.761-30.8c0-14.85-7.701-30.25-23.65-30.25C2473.5,1151.948,2465.58,1166.688,2465.58,1182.858z"/>
		<path d="M2535.32,1183.738c0-6.82-0.221-12.32-0.44-17.38h8.58l0.55,9.13h0.221c3.85-6.49,10.229-10.23,18.92-10.23
			c12.98,0,22.66,10.89,22.66,26.95c0,19.14-11.77,28.6-24.311,28.6c-7.04,0-13.199-3.08-16.39-8.36h-0.22v28.93h-9.57V1183.738z
			 M2544.891,1197.929c0,1.43,0.109,2.75,0.439,3.96c1.76,6.71,7.59,11.33,14.52,11.33c10.23,0,16.171-8.36,16.171-20.57
			c0-10.56-5.61-19.69-15.841-19.69c-6.6,0-12.869,4.62-14.629,11.88c-0.33,1.21-0.66,2.64-0.66,3.85V1197.929z"/>
		<path d="M2603.299,1194.738c0.22,13.09,8.47,18.48,18.26,18.48c6.93,0,11.221-1.21,14.74-2.75l1.76,6.93
			c-3.41,1.54-9.35,3.41-17.82,3.41c-16.39,0-26.18-10.89-26.18-26.95s9.46-28.6,24.971-28.6c17.489,0,22,15.18,22,24.97
			c0,1.98-0.111,3.41-0.33,4.51H2603.299z M2631.679,1187.809c0.11-6.05-2.53-15.62-13.42-15.62c-9.9,0-14.08,8.91-14.851,15.62
			H2631.679z"/>
		<path d="M2653.018,1180.769c0-5.61-0.11-10.01-0.44-14.41h8.58l0.55,8.8h0.221c2.64-4.95,8.8-9.9,17.6-9.9
			c7.37,0,18.811,4.4,18.811,22.66v31.68h-9.68v-30.69c0-8.58-3.191-15.73-12.32-15.73c-6.271,0-11.221,4.51-12.98,9.9
			c-0.439,1.21-0.66,2.86-0.66,4.51v32.01h-9.68V1180.769z"/>
		<path d="M2723.967,1145.458v31.021h35.86v-31.021h9.68v74.141h-9.68v-34.76h-35.86v34.76h-9.68v-74.141H2723.967z"/>
		<path d="M2837.816,1217.289c-3.41,1.76-10.561,3.52-19.58,3.52c-20.9,0-36.521-13.2-36.521-37.62
			c0-23.32,15.729-38.94,38.72-38.94c9.131,0,15.07,1.98,17.601,3.3l-2.42,7.81c-3.521-1.76-8.69-3.08-14.851-3.08
			c-17.379,0-28.93,11.11-28.93,30.58c0,18.26,10.45,29.81,28.381,29.81c5.939,0,11.879-1.21,15.729-3.08L2837.816,1217.289z"/>
	</g>
</g>
<g>
	<polyline fill="none" stroke="#000000" stroke-width="6" stroke-miterlimit="10" points="2437.031,1485.959 2309.479,1358.21 
		2183.637,1484.199 	"/>
	<g>
		<path fill="none" stroke="#000000" stroke-width="6" stroke-miterlimit="10" d="M2137.714,1437.931
			c-6.396,6.044-11.547,13.944-11.547,23.438c0,18.313,14.845,33.158,33.157,33.158c9.495,0,19.484-5.432,25.405-11.428"/>
		<path stroke="#000000" stroke-miterlimit="10" d="M2135.959,1425.312c-1.568,1.67-2.535,3.911-2.535,6.381
			c0,5.156,4.18,9.336,9.335,9.336c2.737,0,5.192-1.186,6.899-3.063L2135.959,1425.312z"/>
		
			<line fill="none" stroke="#000000" stroke-width="1.5" stroke-miterlimit="10" x1="2136.804" y1="1431.832" x2="2145.232" y2="1423.171"/>
		
			<line fill="none" stroke="#000000" stroke-width="1.5" stroke-miterlimit="10" x1="2144.021" y1="1435.956" x2="2151.154" y2="1428.626"/>
	</g>
	<g>
		<path fill="none" stroke="#000000" stroke-width="3" stroke-miterlimit="10" d="M2161.268,1336.729
			c25.543,6.339,48.705,22.319,63.531,46.538c3.133,5.116,5.739,10.404,7.894,15.793"/>
		<path fill="none" stroke="#000000" stroke-width="3" stroke-miterlimit="10" d="M2257.788,1388.346
			c-2.608-6.313-5.738-12.506-9.418-18.517c-18.849-30.789-48.375-51.038-80.896-58.902"/>
		<path fill="none" stroke="#000000" stroke-width="3" stroke-miterlimit="10" d="M2149.69,1384.859
			c13.521,3.448,25.767,11.952,33.628,24.794c1.713,2.8,3.133,5.695,4.299,8.647"/>
		<path fill="none" stroke="#000000" stroke-width="3" stroke-miterlimit="10" d="M2209.453,1408.979
			c-1.62-3.997-3.57-7.918-5.896-11.716c-11.285-18.434-28.881-30.626-48.303-35.531"/>
		<path fill="none" stroke="#000000" stroke-width="3" stroke-miterlimit="10" d="M2136.385,1440.171"/>
		<path fill="none" stroke="#000000" stroke-width="3" stroke-miterlimit="10" d="M2171.395,1425.227
			c-0.83-2.25-1.887-4.451-3.186-6.574c-5.287-8.636-13.544-14.34-22.652-16.61"/>
		<path fill="#FDFF3F" stroke="#000000" stroke-width="3" stroke-miterlimit="10" d="M2167.475,1310.927"/>
		<path fill="none" stroke="#000000" stroke-width="3" stroke-miterlimit="10" d="M2161.268,1336.729"/>
		<path fill="none" stroke="#000000" stroke-width="3" stroke-miterlimit="10" d="M2155.254,1361.732"/>
		<path fill="none" stroke="#000000" stroke-width="3" stroke-miterlimit="10" d="M2149.69,1384.859"/>
		<path fill="none" stroke="#000000" stroke-width="3" stroke-miterlimit="10" d="M2145.557,1402.043"/>
		<path fill="none" stroke="#000000" stroke-width="3" stroke-miterlimit="10" d="M2171.395,1425.227"/>
		<path fill="none" stroke="#000000" stroke-width="3" stroke-miterlimit="10" d="M2187.617,1418.301"/>
		<path fill="#FDFF3F" stroke="#000000" stroke-width="3" stroke-miterlimit="10" d="M2136.385,1440.171"/>
		<path fill="none" stroke="#000000" stroke-width="3" stroke-miterlimit="10" d="M2257.788,1388.346"/>
		<path fill="none" stroke="#000000" stroke-width="3" stroke-miterlimit="10" d="M2209.453,1408.979"/>
		<path fill="none" stroke="#000000" stroke-width="3" stroke-miterlimit="10" d="M2232.692,1399.059"/>
	</g>
	<polyline fill="none" stroke="#000000" stroke-width="6" stroke-miterlimit="10" points="2410,1477 2410,1636 2210,1636 2210,1477 
			"/>
	<g>
		<rect x="2394.658" y="1543.561" fill="none" width="735.231" height="127.541"/>
		<path d="M2485.938,1594.8c0,32.34-19.74,49.7-43.819,49.7c-25.06,0-42.42-19.46-42.42-48.02c0-29.959,18.479-49.56,43.68-49.56
			C2469.277,1546.92,2485.938,1566.66,2485.938,1594.8z M2412.578,1596.2c0,20.3,10.92,38.36,30.24,38.36
			c19.319,0,30.24-17.78,30.24-39.2c0-18.9-9.801-38.5-30.101-38.5S2412.578,1575.62,2412.578,1596.2z"/>
		<path d="M2501.338,1597.32c0-8.68-0.28-15.68-0.561-22.12h10.92l0.7,11.62h0.28c4.9-8.26,13.02-13.02,24.08-13.02
			c16.52,0,28.84,13.86,28.84,34.3c0,24.36-14.98,36.4-30.939,36.4c-8.961,0-16.801-3.92-20.861-10.64h-0.279v36.82h-12.18V1597.32z
			 M2513.518,1615.379c0,1.82,0.141,3.5,0.561,5.04c2.239,8.54,9.659,14.42,18.479,14.42c13.021,0,20.579-10.64,20.579-26.18
			c0-13.44-7.139-25.06-20.159-25.06c-8.399,0-16.38,5.88-18.62,15.12c-0.42,1.54-0.84,3.36-0.84,4.9V1615.379z"/>
		<path d="M2587.855,1611.32c0.279,16.66,10.779,23.52,23.24,23.52c8.819,0,14.279-1.54,18.76-3.5l2.24,8.82
			c-4.34,1.96-11.9,4.34-22.681,4.34c-20.86,0-33.319-13.86-33.319-34.3s12.039-36.4,31.779-36.4c22.26,0,28,19.32,28,31.78
			c0,2.52-0.141,4.34-0.42,5.74H2587.855z M2623.975,1602.5c0.141-7.7-3.219-19.88-17.08-19.88c-12.6,0-17.92,11.34-18.899,19.88
			H2623.975z"/>
		<path d="M2651.134,1593.54c0-7.14-0.14-12.74-0.56-18.34h10.92l0.699,11.2h0.281c3.359-6.3,11.199-12.6,22.399-12.6
			c9.38,0,23.94,5.6,23.94,28.84v40.32h-12.32v-39.06c0-10.92-4.061-20.02-15.68-20.02c-7.98,0-14.28,5.74-16.521,12.6
			c-0.56,1.54-0.84,3.64-0.84,5.74v40.74h-12.32V1593.54z"/>
		<path d="M2741.433,1548.6v39.479h45.64V1548.6h12.32v94.359h-12.32v-44.24h-45.64v44.24h-12.319V1548.6H2741.433z"/>
		<path d="M2886.331,1640.02c-4.34,2.24-13.44,4.48-24.919,4.48c-26.601,0-46.48-16.8-46.48-47.88c0-29.68,20.02-49.56,49.279-49.56
			c11.621,0,19.18,2.52,22.4,4.2l-3.08,9.94c-4.48-2.24-11.061-3.92-18.9-3.92c-22.119,0-36.819,14.14-36.819,38.92
			c0,23.24,13.3,37.94,36.12,37.94c7.56,0,15.119-1.54,20.02-3.92L2886.331,1640.02z"/>
	</g>
</g>
<g>
	<polyline fill="none" stroke="#000000" stroke-width="6" stroke-miterlimit="10" points="2487.031,1909.959 2359.479,1782.21 
		2233.637,1908.199 	"/>
	<g>
		<path fill="none" stroke="#000000" stroke-width="6" stroke-miterlimit="10" d="M2187.714,1861.931
			c-6.396,6.044-11.547,13.944-11.547,23.438c0,18.313,14.845,33.158,33.157,33.158c9.495,0,19.484-5.432,25.405-11.428"/>
		<path stroke="#000000" stroke-miterlimit="10" d="M2185.959,1849.313c-1.568,1.67-2.535,3.91-2.535,6.381
			c0,5.156,4.18,9.336,9.335,9.336c2.737,0,5.192-1.186,6.899-3.063L2185.959,1849.313z"/>
		
			<line fill="none" stroke="#000000" stroke-width="1.5" stroke-miterlimit="10" x1="2186.804" y1="1855.832" x2="2195.232" y2="1847.171"/>
		
			<line fill="none" stroke="#000000" stroke-width="1.5" stroke-miterlimit="10" x1="2194.021" y1="1859.956" x2="2201.154" y2="1852.627"/>
	</g>
	<g>
		<path fill="none" stroke="#000000" stroke-width="3" stroke-miterlimit="10" d="M2211.268,1760.729
			c25.543,6.34,48.705,22.318,63.531,46.537c3.133,5.116,5.739,10.404,7.894,15.793"/>
		<path fill="none" stroke="#000000" stroke-width="3" stroke-miterlimit="10" d="M2307.788,1812.346
			c-2.608-6.313-5.738-12.506-9.418-18.517c-18.849-30.789-48.375-51.038-80.896-58.902"/>
		<path fill="none" stroke="#000000" stroke-width="3" stroke-miterlimit="10" d="M2199.69,1808.859
			c13.521,3.447,25.767,11.952,33.628,24.794c1.713,2.8,3.133,5.695,4.299,8.647"/>
		<path fill="none" stroke="#000000" stroke-width="3" stroke-miterlimit="10" d="M2259.453,1832.979
			c-1.62-3.997-3.57-7.918-5.896-11.716c-11.285-18.434-28.881-30.626-48.303-35.531"/>
		<path fill="none" stroke="#000000" stroke-width="3" stroke-miterlimit="10" d="M2186.385,1864.171"/>
		<path fill="none" stroke="#000000" stroke-width="3" stroke-miterlimit="10" d="M2221.395,1849.227
			c-0.83-2.249-1.887-4.451-3.186-6.573c-5.287-8.636-13.544-14.34-22.652-16.61"/>
		<path fill="#FDFF3F" stroke="#000000" stroke-width="3" stroke-miterlimit="10" d="M2217.475,1734.927"/>
		<path fill="none" stroke="#000000" stroke-width="3" stroke-miterlimit="10" d="M2211.268,1760.729"/>
		<path fill="none" stroke="#000000" stroke-width="3" stroke-miterlimit="10" d="M2205.254,1785.732"/>
		<path fill="none" stroke="#000000" stroke-width="3" stroke-miterlimit="10" d="M2199.69,1808.859"/>
		<path fill="none" stroke="#000000" stroke-width="3" stroke-miterlimit="10" d="M2195.557,1826.043"/>
		<path fill="none" stroke="#000000" stroke-width="3" stroke-miterlimit="10" d="M2221.395,1849.227"/>
		<path fill="none" stroke="#000000" stroke-width="3" stroke-miterlimit="10" d="M2237.617,1842.301"/>
		<path fill="#FDFF3F" stroke="#000000" stroke-width="3" stroke-miterlimit="10" d="M2186.385,1864.171"/>
		<path fill="none" stroke="#000000" stroke-width="3" stroke-miterlimit="10" d="M2307.788,1812.346"/>
		<path fill="none" stroke="#000000" stroke-width="3" stroke-miterlimit="10" d="M2259.453,1832.979"/>
		<path fill="none" stroke="#000000" stroke-width="3" stroke-miterlimit="10" d="M2282.692,1823.059"/>
	</g>
	<polyline fill="none" stroke="#000000" stroke-width="6" stroke-miterlimit="10" points="2460,1901 2460,2060 2260,2060 2260,1901 
			"/>
	<g>
		<rect x="2445.811" y="1954.827" fill="none" width="735.231" height="127.54"/>
		<path d="M2556.649,2017.047c0,39.27-23.97,60.35-53.21,60.35c-30.43,0-51.509-23.631-51.509-58.311
			c0-36.379,22.439-60.179,53.039-60.179C2536.42,1958.907,2556.649,1982.877,2556.649,2017.047z M2467.57,2018.746
			c0,24.65,13.26,46.58,36.72,46.58s36.72-21.59,36.72-47.6c0-22.95-11.9-46.75-36.55-46.75S2467.57,1993.757,2467.57,2018.746z"/>
		<path d="M2575.35,2020.106c0-10.54-0.34-19.04-0.68-26.86h13.26l0.85,14.11h0.34c5.951-10.03,15.811-15.81,29.24-15.81
			c20.06,0,35.02,16.83,35.02,41.649c0,29.579-18.189,44.2-37.569,44.2c-10.88,0-20.399-4.761-25.33-12.92h-0.34v44.709h-14.79
			V2020.106z M2590.14,2042.036c0,2.21,0.17,4.25,0.681,6.12c2.719,10.369,11.729,17.51,22.439,17.51
			c15.81,0,24.989-12.92,24.989-31.789c0-16.32-8.67-30.43-24.479-30.43c-10.2,0-19.891,7.139-22.609,18.359
			c-0.511,1.869-1.021,4.08-1.021,5.949V2042.036z"/>
		<path d="M2680.407,2037.106c0.34,20.229,13.09,28.56,28.22,28.56c10.71,0,17.34-1.87,22.779-4.25l2.721,10.71
			c-5.27,2.38-14.45,5.271-27.54,5.271c-25.329,0-40.46-16.83-40.46-41.65c0-24.819,14.62-44.199,38.59-44.199
			c27.029,0,34,23.459,34,38.59c0,3.06-0.17,5.27-0.51,6.97H2680.407z M2724.267,2026.396c0.171-9.35-3.909-24.14-20.739-24.14
			c-15.301,0-21.76,13.77-22.95,24.14H2724.267z"/>
		<path d="M2757.246,2015.517c0-8.67-0.17-15.47-0.68-22.27h13.26l0.85,13.6h0.34c4.08-7.65,13.6-15.3,27.199-15.3
			c11.391,0,29.07,6.8,29.07,35.02v48.959h-14.96v-47.43c0-13.26-4.931-24.309-19.04-24.309c-9.689,0-17.34,6.969-20.06,15.299
			c-0.681,1.871-1.021,4.42-1.021,6.971v49.469h-14.959V2015.517z"/>
		<path d="M2866.895,1960.947v47.939h55.419v-47.939h14.96v114.578h-14.96v-53.719h-55.419v53.719h-14.96v-114.578H2866.895z"/>
		<path d="M3042.842,2071.956c-5.27,2.72-16.319,5.44-30.26,5.44c-32.299,0-56.438-20.4-56.438-58.141
			c0-36.039,24.31-60.179,59.839-60.179c14.11,0,23.29,3.06,27.2,5.1l-3.74,12.07c-5.44-2.72-13.43-4.76-22.95-4.76
			c-26.859,0-44.709,17.17-44.709,47.259c0,28.221,16.15,46.07,43.859,46.07c9.18,0,18.359-1.871,24.311-4.76L3042.842,2071.956z"/>
	</g>
</g>
<path fill="none" stroke="#000000" stroke-width="6" stroke-miterlimit="10" d="M3789.492,794.633"/>
<line fill="none" stroke="#000000" stroke-width="6" stroke-miterlimit="10" x1="3688" y1="1096" x2="3888" y2="1096.333"/>
<line fill="none" stroke="#000000" stroke-width="6" stroke-miterlimit="10" x1="3691" y1="908" x2="3691" y2="1098"/>
<line fill="none" stroke="#000000" stroke-width="6" stroke-miterlimit="10" x1="3885" y1="908" x2="3885" y2="1096"/>
<polyline fill="none" stroke="#000000" stroke-width="6" stroke-miterlimit="10" points="3740,895.065 3889.703,895.094 
	3789.367,794.602 3689.063,895 "/>
<path fill="none" stroke="#000000" stroke-width="6" stroke-miterlimit="10" d="M3652.25,859.313
	c-5.031,4.755-9.083,10.969-9.083,18.438c0,14.406,11.678,26.083,26.083,26.083c7.469,0,15.326-4.273,19.984-8.99"/>
<g>
	<path fill="none" stroke="#000000" stroke-width="3" stroke-miterlimit="10" d="M3665.352,786.557
		c20.093,4.987,38.313,17.557,49.976,36.608c2.464,4.024,4.515,8.184,6.21,12.423"/>
	<path fill="none" stroke="#000000" stroke-width="3" stroke-miterlimit="10" d="M3741.277,827.161
		c-2.052-4.966-4.514-9.838-7.408-14.566c-14.826-24.22-38.053-40.148-63.635-46.334"/>
	<path fill="none" stroke="#000000" stroke-width="3" stroke-miterlimit="10" d="M3656.244,824.418
		c10.637,2.712,20.27,9.402,26.453,19.503c1.348,2.203,2.465,4.48,3.383,6.803"/>
	<path fill="none" stroke="#000000" stroke-width="3" stroke-miterlimit="10" d="M3703.256,843.392
		c-1.274-3.144-2.809-6.229-4.639-9.216c-8.877-14.5-22.719-24.091-37.996-27.95"/>
	<path fill="none" stroke="#000000" stroke-width="3" stroke-miterlimit="10" d="M3645.777,867.928"/>
	<path fill="none" stroke="#000000" stroke-width="3" stroke-miterlimit="10" d="M3673.317,856.173
		c-0.653-1.77-1.483-3.501-2.505-5.171c-4.159-6.793-10.654-11.28-17.819-13.066"/>
	<path fill="#FDFF3F" stroke="#000000" stroke-width="3" stroke-miterlimit="10" d="M3670.234,766.26"/>
	<path fill="none" stroke="#000000" stroke-width="3" stroke-miterlimit="10" d="M3665.352,786.557"/>
	<path fill="none" stroke="#000000" stroke-width="3" stroke-miterlimit="10" d="M3660.621,806.226"/>
	<path fill="none" stroke="#000000" stroke-width="3" stroke-miterlimit="10" d="M3656.244,824.418"/>
	<path fill="none" stroke="#000000" stroke-width="3" stroke-miterlimit="10" d="M3652.993,837.936"/>
	<path fill="none" stroke="#000000" stroke-width="3" stroke-miterlimit="10" d="M3673.317,856.173"/>
	<path fill="none" stroke="#000000" stroke-width="3" stroke-miterlimit="10" d="M3686.08,850.725"/>
	<path fill="#FDFF3F" stroke="#000000" stroke-width="3" stroke-miterlimit="10" d="M3645.777,867.928"/>
	<path fill="none" stroke="#000000" stroke-width="3" stroke-miterlimit="10" d="M3741.277,827.161"/>
	<path fill="none" stroke="#000000" stroke-width="3" stroke-miterlimit="10" d="M3703.256,843.392"/>
	<path fill="none" stroke="#000000" stroke-width="3" stroke-miterlimit="10" d="M3721.537,835.588"/>
</g>
</svg>
