<?xml version="1.0" encoding="utf-8"?>
<!-- Generator: Adobe Illustrator 15.0.0, SVG Export Plug-In . SVG Version: 6.00 Build 0)  -->
<!DOCTYPE svg PUBLIC "-//W3C//DTD SVG 1.1//EN" "http://www.w3.org/Graphics/SVG/1.1/DTD/svg11.dtd">
<svg version="1.1" id="Ebene_1" xmlns="http://www.w3.org/2000/svg" xmlns:xlink="http://www.w3.org/1999/xlink" x="0px" y="0px"
	 width="800px" height="350px" viewBox="0 0 800 350" enable-background="new 0 0 800 350" xml:space="preserve">
<path fill="none" stroke="#000000" stroke-width="6" stroke-miterlimit="10" d="M260.492,34.633"/>
<line fill="none" stroke="#000000" stroke-width="6" stroke-miterlimit="10" x1="159" y1="336" x2="359" y2="336.334"/>
<line fill="none" stroke="#000000" stroke-width="6" stroke-miterlimit="10" x1="162" y1="148" x2="162" y2="322"/>
<line fill="none" stroke="#000000" stroke-width="6" stroke-miterlimit="10" x1="356" y1="148" x2="356" y2="322"/>
<polyline fill="none" stroke="#000000" stroke-width="6" stroke-miterlimit="10" points="211,135.065 360.703,135.094 
	260.367,34.602 160.063,135 "/>
<path fill="none" stroke="#000000" stroke-width="6" stroke-miterlimit="10" d="M123.25,99.313
	c-5.031,4.755-9.083,10.969-9.083,18.438c0,14.406,11.678,26.083,26.083,26.083c7.469,0,15.326-4.273,19.984-8.99"/>
<path stroke="#000000" stroke-miterlimit="10" d="M121.869,89.386c-1.233,1.313-1.994,3.076-1.994,5.02
	c0,4.056,3.288,7.344,7.344,7.344c2.153,0,4.084-0.933,5.427-2.409L121.869,89.386z"/>
<line fill="none" stroke="#000000" stroke-width="1.5" stroke-miterlimit="10" x1="122.534" y1="94.515" x2="129.165" y2="87.702"/>
<line fill="none" stroke="#000000" stroke-width="1.5" stroke-miterlimit="10" x1="128.212" y1="97.759" x2="133.823" y2="91.994"/>
<g>
	<path fill="none" stroke="#000000" stroke-width="3" stroke-miterlimit="10" d="M136.352,26.557
		c20.092,4.987,38.313,17.557,49.975,36.608c2.464,4.024,4.515,8.184,6.209,12.423"/>
	<path fill="none" stroke="#000000" stroke-width="3" stroke-miterlimit="10" d="M212.278,67.161
		c-2.052-4.966-4.514-9.838-7.408-14.566c-14.827-24.22-38.054-40.148-63.635-46.334"/>
	<path fill="none" stroke="#000000" stroke-width="3" stroke-miterlimit="10" d="M127.245,64.418
		c10.636,2.712,20.269,9.402,26.453,19.503c1.348,2.203,2.465,4.48,3.382,6.803"/>
	<path fill="none" stroke="#000000" stroke-width="3" stroke-miterlimit="10" d="M174.256,83.392
		c-1.275-3.144-2.809-6.229-4.639-9.216c-8.877-14.5-22.719-24.091-37.997-27.95"/>
	<path fill="none" stroke="#000000" stroke-width="3" stroke-miterlimit="10" d="M116.778,107.928"/>
	<path fill="none" stroke="#000000" stroke-width="3" stroke-miterlimit="10" d="M144.317,96.173
		c-0.653-1.77-1.483-3.501-2.505-5.171c-4.159-6.793-10.654-11.28-17.819-13.066"/>
	<path fill="#FDFF3F" stroke="#000000" stroke-width="3" stroke-miterlimit="10" d="M141.234,6.26"/>
	<path fill="none" stroke="#000000" stroke-width="3" stroke-miterlimit="10" d="M136.352,26.557"/>
	<path fill="none" stroke="#000000" stroke-width="3" stroke-miterlimit="10" d="M131.621,46.226"/>
	<path fill="none" stroke="#000000" stroke-width="3" stroke-miterlimit="10" d="M127.245,64.418"/>
	<path fill="none" stroke="#000000" stroke-width="3" stroke-miterlimit="10" d="M123.993,77.936"/>
	<path fill="none" stroke="#000000" stroke-width="3" stroke-miterlimit="10" d="M144.317,96.173"/>
	<path fill="none" stroke="#000000" stroke-width="3" stroke-miterlimit="10" d="M157.08,90.725"/>
	<path fill="#FDFF3F" stroke="#000000" stroke-width="3" stroke-miterlimit="10" d="M116.778,107.928"/>
	<path fill="none" stroke="#000000" stroke-width="3" stroke-miterlimit="10" d="M212.278,67.161"/>
	<path fill="none" stroke="#000000" stroke-width="3" stroke-miterlimit="10" d="M174.256,83.392"/>
	<path fill="none" stroke="#000000" stroke-width="3" stroke-miterlimit="10" d="M192.537,75.588"/>
</g>
<path fill="none" stroke="#000000" stroke-width="6" stroke-miterlimit="10" d="M580.492,34.633"/>
<line fill="none" stroke="#000000" stroke-width="6" stroke-miterlimit="10" x1="479" y1="336" x2="679" y2="336.334"/>
<line fill="none" stroke="#000000" stroke-width="6" stroke-miterlimit="10" x1="482" y1="148" x2="482" y2="338"/>
<line fill="none" stroke="#000000" stroke-width="6" stroke-miterlimit="10" x1="676" y1="148" x2="676" y2="336"/>
<polyline fill="none" stroke="#000000" stroke-width="6" stroke-miterlimit="10" points="531,135.065 680.703,135.094 
	580.367,34.602 480.063,135 "/>
<path fill="none" stroke="#000000" stroke-width="6" stroke-miterlimit="10" d="M443.25,99.313
	c-5.031,4.755-9.083,10.969-9.083,18.438c0,14.406,11.678,26.083,26.083,26.083c7.469,0,15.326-4.273,19.984-8.99"/>
<path stroke="#000000" stroke-miterlimit="10" d="M441.869,89.386c-1.233,1.313-1.994,3.076-1.994,5.02
	c0,4.056,3.288,7.344,7.344,7.344c2.153,0,4.084-0.933,5.428-2.409L441.869,89.386z"/>
<line fill="none" stroke="#000000" stroke-width="1.5" stroke-miterlimit="10" x1="442.534" y1="94.515" x2="449.164" y2="87.702"/>
<line fill="none" stroke="#000000" stroke-width="1.5" stroke-miterlimit="10" x1="448.213" y1="97.759" x2="453.822" y2="91.994"/>
<g>
	<path fill="none" stroke="#000000" stroke-width="3" stroke-miterlimit="10" d="M456.352,26.557
		c20.093,4.987,38.313,17.557,49.976,36.608c2.464,4.024,4.515,8.184,6.21,12.423"/>
	<path fill="none" stroke="#000000" stroke-width="3" stroke-miterlimit="10" d="M532.277,67.161
		c-2.052-4.966-4.514-9.838-7.408-14.566c-14.826-24.22-38.053-40.148-63.635-46.334"/>
	<path fill="none" stroke="#000000" stroke-width="3" stroke-miterlimit="10" d="M447.244,64.418
		c10.637,2.712,20.27,9.402,26.453,19.503c1.348,2.203,2.465,4.48,3.383,6.803"/>
	<path fill="none" stroke="#000000" stroke-width="3" stroke-miterlimit="10" d="M494.256,83.392
		c-1.274-3.144-2.809-6.229-4.639-9.216c-8.877-14.5-22.719-24.091-37.996-27.95"/>
	<path fill="none" stroke="#000000" stroke-width="3" stroke-miterlimit="10" d="M436.777,107.928"/>
	<path fill="none" stroke="#000000" stroke-width="3" stroke-miterlimit="10" d="M464.317,96.173
		c-0.653-1.77-1.483-3.501-2.505-5.171c-4.159-6.793-10.654-11.28-17.819-13.066"/>
	<path fill="#FDFF3F" stroke="#000000" stroke-width="3" stroke-miterlimit="10" d="M461.234,6.26"/>
	<path fill="none" stroke="#000000" stroke-width="3" stroke-miterlimit="10" d="M456.352,26.557"/>
	<path fill="none" stroke="#000000" stroke-width="3" stroke-miterlimit="10" d="M451.621,46.226"/>
	<path fill="none" stroke="#000000" stroke-width="3" stroke-miterlimit="10" d="M447.244,64.418"/>
	<path fill="none" stroke="#000000" stroke-width="3" stroke-miterlimit="10" d="M443.993,77.936"/>
	<path fill="none" stroke="#000000" stroke-width="3" stroke-miterlimit="10" d="M464.317,96.173"/>
	<path fill="none" stroke="#000000" stroke-width="3" stroke-miterlimit="10" d="M477.08,90.725"/>
	<path fill="#FDFF3F" stroke="#000000" stroke-width="3" stroke-miterlimit="10" d="M436.777,107.928"/>
	<path fill="none" stroke="#000000" stroke-width="3" stroke-miterlimit="10" d="M532.277,67.161"/>
	<path fill="none" stroke="#000000" stroke-width="3" stroke-miterlimit="10" d="M494.256,83.392"/>
	<path fill="none" stroke="#000000" stroke-width="3" stroke-miterlimit="10" d="M512.537,75.588"/>
</g>
<g>
	<rect x="136.5" y="197.334" fill="none" width="244.087" height="177.836"/>
	<path d="M230.777,230.274c0,20.789-12.689,31.949-28.169,31.949c-16.109,0-27.269-12.51-27.269-30.869
		c0-19.259,11.88-31.858,28.079-31.858C220.068,199.496,230.777,212.186,230.777,230.274z M183.619,231.175
		c0,13.049,7.02,24.659,19.439,24.659c12.42,0,19.439-11.43,19.439-25.199c0-12.149-6.3-24.749-19.349-24.749
		S183.619,217.945,183.619,231.175z"/>
	<path d="M248.779,200.576v25.379h29.339v-25.379h7.919v60.657h-7.919v-28.438h-29.339v28.438h-7.92v-60.657H248.779z"/>
	<path d="M341.927,259.344c-2.79,1.439-8.64,2.88-16.02,2.88c-17.099,0-29.879-10.8-29.879-30.779
		c0-19.079,12.87-31.858,31.679-31.858c7.47,0,12.33,1.62,14.399,2.699l-1.98,6.391c-2.88-1.44-7.109-2.52-12.149-2.52
		c-14.219,0-23.669,9.089-23.669,25.019c0,14.939,8.55,24.389,23.219,24.389c4.86,0,9.719-0.99,12.869-2.52L341.927,259.344z"/>
</g>
<g>
	<rect x="458" y="196.834" fill="none" width="244.087" height="177.836"/>
	<path d="M552.277,229.774c0,20.789-12.689,31.949-28.169,31.949c-16.109,0-27.269-12.51-27.269-30.869
		c0-19.259,11.879-31.858,28.078-31.858C541.568,198.996,552.277,211.686,552.277,229.774z M505.119,230.675
		c0,13.049,7.02,24.659,19.439,24.659s19.439-11.43,19.439-25.199c0-12.149-6.301-24.749-19.35-24.749
		S505.119,217.445,505.119,230.675z"/>
	<path d="M570.279,200.076v25.379h29.338v-25.379h7.92v60.657h-7.92v-28.438h-29.338v28.438h-7.92v-60.657H570.279z"/>
	<path d="M663.427,258.844c-2.79,1.439-8.64,2.88-16.02,2.88c-17.099,0-29.879-10.8-29.879-30.779
		c0-19.079,12.87-31.858,31.679-31.858c7.47,0,12.33,1.62,14.399,2.699l-1.979,6.391c-2.881-1.44-7.109-2.52-12.15-2.52
		c-14.219,0-23.668,9.089-23.668,25.019c0,14.939,8.549,24.389,23.219,24.389c4.859,0,9.719-0.99,12.869-2.52L663.427,258.844z"/>
</g>
</svg>
